<?xml version="1.0" standalone="no"?>
<!DOCTYPE svg PUBLIC "-//W3C//DTD SVG 20010904//EN"
 "http://www.w3.org/TR/2001/REC-SVG-20010904/DTD/svg10.dtd">
<svg version="1.0" xmlns="http://www.w3.org/2000/svg"
 width="600.000000pt" height="600.000000pt" viewBox="0 0 600.000000 600.000000"
 preserveAspectRatio="xMidYMid meet">
<metadata>
Created by potrace 1.11, written by Peter Selinger 2001-2013
</metadata>
<g transform="translate(0.000000,600.000000) scale(0.100000,-0.100000)"
fill="#000000" stroke="none">
<path d="M683 4598 c13 -29 333 -772 712 -1651 l689 -1598 78 3 79 3 376 872
c207 480 379 870 382 868 3 -2 175 -395 381 -874 l375 -871 79 2 80 3 707
1635 c390 899 708 1641 708 1648 1 9 -22 12 -82 12 l-84 0 -77 -182 c-692
-1625 -1250 -2918 -1256 -2911 -5 4 -173 389 -374 855 l-366 847 290 676 c159
371 290 677 290 680 0 3 -35 5 -78 5 l-78 0 -259 -605 c-142 -333 -262 -602
-266 -598 -4 4 -118 274 -254 598 -136 325 -250 594 -254 598 -5 4 -42 7 -83
5 l-76 -3 289 -670 c159 -368 288 -677 288 -685 1 -20 -723 -1701 -732 -1703
-5 -1 -306 693 -671 1543 l-663 1545 -87 3 -86 3 23 -53z"/>
</g>
</svg>
